<svg width="1088" height="514" viewBox="0 0 1088 514" fill="none" xmlns="http://www.w3.org/2000/svg">
<path d="M79.6583 76.3175C82.5189 63.1319 93.8298 53.4782 107.301 52.7247L1012.09 2.11695C1028.22 1.2148 1042.17 13.2461 1043.64 29.3331L1084.8 478.573C1086.48 496.919 1071.38 512.431 1053 511.248L34.7811 445.738C16.4719 444.56 3.49949 427.369 7.3893 409.439L79.6583 76.3175Z" fill="#29274C"/>
<path d="M14.5679 119.618C12.141 101.757 25.9005 85.8035 43.924 85.5808L990.203 73.8868C1007.27 73.6759 1021.07 87.7253 1020.56 104.785L1010.91 426.062C1010.41 442.798 996.306 455.884 979.579 455.131L79.5077 414.625C65.0257 413.974 53.0814 403.06 51.1295 388.695L14.5679 119.618Z" fill="#F0E27B"/>
</svg>
