<svg width="267" height="319" viewBox="0 0 267 319" fill="none" xmlns="http://www.w3.org/2000/svg">
<path d="M37.605 179.28L33.79 207.075" stroke="#29274C" stroke-width="6" stroke-linecap="round"/>
<ellipse cx="25.0701" cy="207.62" rx="11.99" ry="9.81" fill="#29274C"/>
<path d="M67.9653 181.345L66.6497 209.37" stroke="#29274C" stroke-width="6" stroke-linecap="round"/>
<ellipse cx="57.7698" cy="209.8" rx="11.99" ry="9.81" fill="#29274C"/>
<circle cx="54.5" cy="133.5" r="54.5" fill="#DB5D5D"/>
<path d="M43.6001 143.31C44.6901 152.575 61.5851 161.84 67.5801 143.31" stroke="#29274C" stroke-width="2" stroke-linecap="round"/>
<circle cx="37.0599" cy="126.96" r="2.18" fill="#29274C"/>
<circle cx="71.9398" cy="126.96" r="2.18" fill="#29274C"/>
<path d="M176.5 117L173 142.5" stroke="#29274C" stroke-width="6" stroke-linecap="round"/>
<ellipse cx="165" cy="143" rx="11" ry="9" fill="#29274C"/>
<path d="M204.5 118L201 143.5" stroke="#29274C" stroke-width="6" stroke-linecap="round"/>
<ellipse cx="193" cy="144" rx="11" ry="9" fill="#29274C"/>
<path d="M179.34 15C183.189 8.33334 192.811 8.33333 196.66 15L247.756 103.5C251.605 110.167 246.794 118.5 239.096 118.5H136.904C129.206 118.5 124.395 110.167 128.244 103.5L179.34 15Z" fill="#F0E27B"/>
<path d="M178 88C179 96.5 194.5 105 200 88" stroke="#29274C" stroke-width="2" stroke-linecap="round"/>
<circle cx="172" cy="73" r="2" fill="#29274C"/>
<circle cx="204" cy="73" r="2" fill="#29274C"/>
<rect x="109" y="178" width="106" height="106" rx="10" fill="#29274C"/>
<path d="M152 245C153 253.5 168.5 262 174 245" stroke="#E3F2FD" stroke-width="2" stroke-linecap="round"/>
<circle cx="146" cy="230" r="2" fill="#E3F2FD"/>
<circle cx="178" cy="230" r="2" fill="#E3F2FD"/>
<path d="M147.5 284L144 309.5" stroke="#29274C" stroke-width="6" stroke-linecap="round"/>
<ellipse cx="136" cy="310" rx="11" ry="9" fill="#29274C"/>
<path d="M181.5 284L178 309.5" stroke="#29274C" stroke-width="6" stroke-linecap="round"/>
<ellipse cx="170" cy="310" rx="11" ry="9" fill="#29274C"/>
</svg>
